<svg viewBox="0 0 24 24" fill="none" xmlns="http://www.w3.org/2000/svg">
<path d="M3 6V16.8C3 17.9201 3 18.4798 3.21799 18.9076C3.40973 19.2839 3.71547 19.5905 4.0918 19.7822C4.5192 20 5.07899 20 6.19691 20H17.8031C18.921 20 19.48 20 19.9074 19.7822C20.2837 19.5905 20.5905 19.2841 20.7822 18.9078C21.0002 18.48 21.0002 17.9199 21.0002 16.7998V9.19978C21.0002 8.07967 21.0002 7.51962 20.7822 7.0918C20.5905 6.71547 20.2839 6.40973 19.9076 6.21799C19.4798 6 18.9201 6 17.8 6H12L10.9375 4.9375C10.5918 4.59182 10.4186 4.41857 10.2168 4.29492C10.0379 4.18526 9.84311 4.10425 9.63904 4.05526C9.40886 4 9.1637 4 8.67452 4H5C3.89543 4 3 4.89543 3 6Z" fill="currentColor"/>
</svg>
